<svg width="28" height="28" viewBox="0 0 28 28" fill="none" xmlns="http://www.w3.org/2000/svg">
<path d="M17.5 15.1667H10.5" stroke="white" stroke-width="1.75" stroke-linecap="round"/>
<path d="M14 11.6667V18.6667" stroke="white" stroke-width="1.75" stroke-linecap="round"/>
<path d="M22.1667 11.6667H21" stroke="white" stroke-width="1.75" stroke-linecap="round"/>
<path d="M2.33331 15.5909C2.33331 12.016 2.33331 10.2284 3.20717 8.94437C3.58547 8.3885 4.07159 7.91121 4.63776 7.53979C5.47812 6.98848 6.5302 6.79143 8.14098 6.721C8.90964 6.721 9.57145 6.14913 9.7222 5.40909C9.94832 4.29904 10.941 3.5 12.094 3.5H15.906C17.0589 3.5 18.0516 4.29904 18.2778 5.40909C18.4285 6.14913 19.0903 6.721 19.859 6.721C21.4698 6.79143 22.5218 6.98848 23.3622 7.53979C23.9283 7.91121 24.4145 8.3885 24.7928 8.94437C25.6666 10.2284 25.6666 12.016 25.6666 15.5909C25.6666 19.1659 25.6666 20.9534 24.7928 22.2375C24.4145 22.7933 23.9283 23.2706 23.3622 23.642C22.0544 24.5 20.2338 24.5 16.5925 24.5H11.4074C7.76619 24.5 5.94559 24.5 4.63776 23.642C4.07159 23.2706 3.58547 22.7933 3.20717 22.2375C2.96035 21.8748 2.78325 21.4719 2.65616 21" stroke="white" stroke-width="1.75" stroke-linecap="round"/>
</svg>
